# xmcd
#
# Track frame offsets: 
#        150
#        7955
#        18490
#        29615
#        42662
#        55722
#        66027
#        67125
#        76617
#        87562
#        99997
#        110122
#        111132
#        120687
#        132795
#        144122
#        155715
#        175417
#        186045
#        186450
#        195807
#        208162
#        220352
#        232212
#        242697
#        255117
#        256235
#        269220
#        278445
#        289817
#        290915
#        302175
#        313322
#        315235
#        325315
#        337602
#
# Disc length: 4672 seconds
#
# Revision: 6
# Processed by: cddbd v1.5.2PL0 Copyright (c) Steve Scherf et al.
# Submitted via: ExactAudioCopyFreeDBPlugin 1.0
#
DISCID=1c123e24
DTITLE=Various Artist - Sam Cooke's SAR Records Story [box set]
DYEAR=1994
DGENRE=Rhythm and Blues
TTITLE0=Sam Cooke - You Send Me (Demo)
TTITLE1=Sam Cooke - Just For You
TTITLE2=Sam Cooke - Somewhere There's a Girl
TTITLE3=Sam Cooke - You Where Made for Me
TTITLE4=Mel Carter - When a Boy Falls in Love
TTITLE5=The Simms Twins - Soothe Me
TTITLE6=The Simms Twins - That's Where it's At (Chatter)
TTITLE7=The Simms Twins - That's Where it's At
TTITLE8=The Valentinos - Everybody Wants to Fall in Love
TTITLE9=Johnnie Taylor - Keep on Loving You
TTITLE10=Johnnie Taylor - I'll Always Be in Love with You
TTITLE11=Johnnie Taylor - Baby, We've Got Love (Chatter)
TTITLE12=Johnnie Taylor - Baby, We've Got Love
TTITLE13=The Valentinos - Baby, Lots of Luck
TTITLE14=L. C. Cooke - Put Me Down Easy
TTITLE15=Johnnie Taylor - Rome (Wasn't Built in a Day)
TTITLE16=Billy Preston - Greazee Parts I and II
TTITLE17=The Simms Twins - I Gopher You
TTITLE18=The Simms Twins - I Gopher You (Chatter)
TTITLE19=Johnnie Morisette - You're Always on My Mind
TTITLE20=Johnnie Taylor - I Need Lots of Love
TTITLE21=Johnnie Morisette - Don't Throw Your Love on Me So Strong
TTITLE22=Johnnie Morisette - Black Night
TTITLE23=Johnnie Morisette - Damper
TTITLE24=Johnnie Taylor - You Can Run (But You Can't Hide)
TTITLE25=Johnnie Morisette - Meet Me at The Twisting Place (Chatter)
TTITLE26=Johnnie Morisette - Meet Me at The Twisting Place
TTITLE27=The Simms Twins - Good Good Loving
TTITLE28=L. C. Cooke - The Wobble
TTITLE29=Sam Cooke and The Valentinos - Lookin' for a Love (Chatter)
TTITLE30=The Valentinos - Lookin' for a Love
TTITLE31=The Valentinos - I've Got Love for You
TTITLE32=Sam Cooke and Bobby Womack - I've Got a Girl (Chatter)
TTITLE33=The Valentinos - I've Got a Girl
TTITLE34=The Valentinos - Tired of Living in the Country
TTITLE35=The Valentinos - It's All Over Now
EXTD=
EXTT0=
EXTT1=
EXTT2=
EXTT3=
EXTT4=
EXTT5=
EXTT6=
EXTT7=
EXTT8=
EXTT9=
EXTT10=
EXTT11=
EXTT12=
EXTT13=
EXTT14=
EXTT15=
EXTT16=
EXTT17=
EXTT18=
EXTT19=
EXTT20=
EXTT21=
EXTT22=
EXTT23=
EXTT24=
EXTT25=
EXTT26=
EXTT27=
EXTT28=
EXTT29=
EXTT30=
EXTT31=
EXTT32=
EXTT33=
EXTT34=
EXTT35=
PLAYORDER=
